<?xml version="1.0" encoding="utf-8"?>
<!-- Generator: Adobe Illustrator 25.2.1, SVG Export Plug-In . SVG Version: 6.00 Build 0)  -->
<svg 
{...Astro.props}
version="1.1" xmlns="http://www.w3.org/2000/svg" xmlns:xlink="http://www.w3.org/1999/xlink" x="0px" y="0px"
	 viewBox="0 0 750 500" style="enable-background:new 0 0 750 500;" xml:space="preserve">
<style type="text/css">
	.st0{display:none;}
	.st1{display:inline;}
	.st2{fill:#407BFF;}
	.st3{opacity:0.9;fill:#FFFFFF;}
	.st4{fill:#2D2D2D;}
	.st5{opacity:0.4;}
	.st6{fill:#B97964;}
	.st7{fill:#A24E3F;}
	.st8{fill:#BD1622;}
	.st9{fill:#FD8173;}
	.st10{fill:none;stroke:#FD504E;stroke-linecap:round;stroke-linejoin:round;stroke-miterlimit:10;}
	.st11{fill:#F8B133;}
	.st12{fill:#FDBBB5;}
	.st13{opacity:0.2;}
	.st14{fill:none;stroke:#D7504D;stroke-linecap:round;stroke-linejoin:round;stroke-miterlimit:10;}
	.st15{fill:#E97F3F;}
	.st16{fill:#1D70B7;}
	.st17{fill:#FDAD6A;}
	.st18{fill:none;stroke:#E97F3F;stroke-width:0.75;stroke-linecap:round;stroke-linejoin:round;stroke-miterlimit:10;}
</style>
<g id="Background_complete">
</g>
<g id="Background_simple" class="st0">
	<g class="st1">
		<path class="st2" d="M253.47,61.98c-35.87,4.55-70.46,14.25-101.14,29.45c-36.16,17.92-73.1,45.84-62.19,82.35
			c20.14,67.41,116.78,68.64,97.49,113.97c-21.86,51.34-7.2,111.57,90.87,128.32c186.27,31.81,411.44-154.32,348.2-256.59
			C587.33,95.8,443.93,37.8,253.47,61.98z"/>
		<path class="st3" d="M253.47,61.98c-35.87,4.55-70.46,14.25-101.14,29.45c-36.16,17.92-73.1,45.84-62.19,82.35
			c20.14,67.41,116.78,68.64,97.49,113.97c-21.86,51.34-7.2,111.57,90.87,128.32c186.27,31.81,411.44-154.32,348.2-256.59
			C587.33,95.8,443.93,37.8,253.47,61.98z"/>
	</g>
</g>
<g id="Shadow">
</g>
<g id="Hand_4">
	<g>
		<g>
			<g>
				<path class="st4" d="M663.24,190.78H539.22c-3.38,0-6.13,2.74-6.13,6.13v44.38c0.85,0.86,3.54,2.55,10.19-0.42l0,0.02
					c3.68-2.68,8.2-4.29,13.11-4.29c12.32,0,22.3,9.99,22.3,22.3c0,12.32-9.99,22.3-22.3,22.3c-4.65,0-8.96-1.42-12.53-3.85l0,0
					c0,0-7.19-4.74-10.77-0.41v43.96c0,3.38,2.74,6.13,6.13,6.13h124.02c3.38,0,6.13-2.74,6.13-6.13V196.91
					C669.37,193.52,666.63,190.78,663.24,190.78z"/>
				<path class="st5" d="M621.94,327.05l-1.83-21.61c-0.75-7.52-2.07-12.41,3.01-12.04c5.08,0.38,9.41,6.02,11.29,13.17l2.28,20.48"
					/>
				<path class="st5" d="M644.09,327.05c-0.25-6.16,0.86-39.11,0.86-39.11c0-8.09-4.33-31.41-3.39-42.7
					c0.94-11.29,3.95-17.12,8.28-16.74c4.33,0.38,6.21,9.4,6.21,9.4s2.63-0.75,4.89,3.95s7.15,16.36,7.15,16.36
					s7.78,35.04,6.88,68.83H644.09z"/>
				<g>
					<path class="st6" d="M664.77,441.46c0,0-3.27-49.68-9.58-53.42c-1.1-0.65-20.4-17.52-25.85-35.58s-3.2-39.5-3.95-47.03
						c-0.75-7.52-2.07-12.41,3.01-12.04c5.08,0.38,9.41,6.02,11.29,13.17s0.56,22.95,3.01,25.96c2.45,3.01,4.14,1.13,4.14,0.56
						c0-0.56,3.39-37.06,3.39-45.14c0-8.09-4.33-31.41-3.39-42.7c0.94-11.29,3.95-17.12,8.28-16.74c4.33,0.38,6.21,9.4,6.21,9.4
						s2.63-0.75,4.89,3.95s7.15,16.36,7.15,16.36s0.56-9.03,4.51-9.41c3.95-0.38,6.02,4.14,7.52,9.59c1.5,5.45,3.95,13.92,5.27,20.5
						c1.32,6.58,2.63,17.31,2.63,17.31s1.32-17.87,2.63-20.88c1.32-3.01,6.02-5.64,7.34-3.01c1.32,2.63-1.32,32.54-1.32,38.18
						c0,5.64-6.02,49.28-3.76,59.06c2.26,9.78,23.88,71.88,23.88,71.88H664.77z"/>
					<g>
						<g>
							<path class="st7" d="M668.88,306.68c0.68-9.63,1.35-19.34,0.08-28.95c-1.12-8.43-3.49-16.65-5.03-25
								c-0.95-5.13-1.59-10.3-1.81-15.51c-0.04-0.96-1.54-0.97-1.5,0c0.37,8.69,2.01,17.18,3.89,25.66
								c0.93,4.2,1.89,8.41,2.61,12.65c0.82,4.81,1.08,9.7,1.06,14.57c-0.02,5.53-0.41,11.06-0.8,16.58
								C667.31,307.64,668.81,307.64,668.88,306.68L668.88,306.68z"/>
						</g>
					</g>
					<g>
						<g>
							<path class="st7" d="M672.95,257.87c2.83,6.04,5.64,12.28,7.45,18.71c0.86,3.06,0.9,6.18,0.97,9.34
								c0.09,4.3,0.07,8.61,0.04,12.91c-0.02,2.62-0.05,5.23-0.1,7.85c-0.02,0.97,1.48,0.97,1.5,0c0.13-6.56,0.19-13.13,0.09-19.7
								c-0.05-3.21,0.02-6.54-0.74-9.67c-1-4.11-2.66-8.09-4.28-11.99c-1.15-2.76-2.35-5.5-3.62-8.21
								C673.84,256.24,672.55,257,672.95,257.87L672.95,257.87z"/>
						</g>
					</g>
					<g>
						<g>
							<path class="st7" d="M692.67,293.66c-0.55,6.23-0.07,12.53-0.06,18.77c0,0.97,1.5,0.97,1.5,0
								c-0.01-6.24-0.49-12.54,0.06-18.77C694.25,292.7,692.75,292.71,692.67,293.66L692.67,293.66z"/>
						</g>
					</g>
				</g>
			</g>
		</g>
	</g>
	<path class="st5" d="M532.63,287.64c0,0,19.78,9.24,26.49-5.84c0,0-6.93,2.29-12.16-2.94c-5.23-5.23-14.63-4.67-14.32-4.67
		C532.94,274.18,532.63,287.64,532.63,287.64z"/>
</g>
<g id="Hand_3">
	<g>
		<path class="st8" d="M542.55,237.31c-4.9,0-9.42,1.6-13.11,4.29l0-0.02c-6.46,2.88-9.19,1.37-10.12,0.49v-44.45
			c0-3.38-2.74-6.13-6.13-6.13H389.18c-3.38,0-6.13,2.74-6.13,6.13v44.38c0.85,0.86,3.54,2.55,10.19-0.42l0,0.02
			c3.68-2.68,8.2-4.29,13.11-4.29c12.32,0,22.3,9.99,22.3,22.3c0,12.32-9.99,22.3-22.3,22.3c-4.65,0-8.96-1.42-12.53-3.85l0,0
			c0,0-7.19-4.74-10.77-0.41v43.96c0,3.38,2.74,6.13,6.13,6.13h53.54c4.38,3.57-0.41,10.8-0.41,10.8h0
			c-2.43,3.57-3.85,7.88-3.85,12.53c0,12.32,9.99,22.3,22.3,22.3c12.32,0,22.3-9.99,22.3-22.3c0-4.9-1.58-9.43-4.26-13.11h0
			c-3-6.73-1.24-9.4-0.38-10.22h34.77c3.38,0,6.13-2.74,6.13-6.13v-44.05c3.6-4.18,10.7,0.5,10.7,0.5l0,0
			c3.57,2.43,7.88,3.85,12.53,3.85c12.32,0,22.3-9.99,22.3-22.3C564.85,247.3,554.87,237.31,542.55,237.31z"/>
	</g>
	<g>
		<path class="st5" d="M398.22,221.39c0,0,5.44,4.56,9.92-0.45c0,0,11.8,8.66,18.94,5.07c0,0,14.19,4.17,19.79-1.18l2.1-3.89
			c0,0,9.02,1.22,11.04-7.12c1.13-4.66-4.4-12.66-7.74-15.96c0,0,2.25-5.19,1.94-5.19c-0.7,0-57.75,0.68-57.75,0.68L398.22,221.39z"
			/>
		<path class="st9" d="M481.33,145.4c-1.47,0.74-56.41-7.08-66.73-1.92c-10.32,5.16-27.86,33.47-28.22,42.31
			c-0.37,8.84,8.33,33.59,8.7,35.06c0.37,1.47,7.63,1.66,9.58-8.11c0.37-1.84,0.74-7,0.74-7s12.9,24.69,25.05,13.63
			c0,0,5.88,6.8,10.49,2.85c4.61-3.95,3.51-5.8,3.51-5.8s8.84,2.58,9.21-4.79c0.37-7.37-5.9-12.9-5.9-12.9l6.63-9.95
			c0,0,34.82,6.14,44.21-0.37c6.91-4.79,7-7.37,7-7.37l72.94-138.11h-61.14L481.33,145.4z"/>
		<path class="st10" d="M444.26,215.49c-2.72-1.73-5.47-3.49-7.75-5.78c-2.28-2.29-5.77-7.68-6.14-10.88
			c-0.66-5.71,6.16-14.43,8.8-18.61"/>
		<path class="st10" d="M432.1,220.94c-3.73-3.02-5.72-5.26-9.14-9.32c-2.12-2.51-4.5-5.81-6.41-8.98
			c-2.33-3.87-3.71-8.32-1.93-12.47c1.78-4.15,11-20.4,11-20.4"/>
		<path class="st10" d="M410.78,213.82c-4.07-4.82-8.22-13.47-10.35-20.1c-1.49-4.66,7.64-21.88,11.77-28.78"/>
		<path class="st10" d="M454.22,189.49c2.44-1.65,4.45-3.92,5.8-6.54"/>
	</g>
</g>
<g id="Hand_1">
	<g>
		<path class="st11" d="M226.48,241.6v-43.96c0-3.38-2.74-6.13-6.13-6.13H172.7c-2.99-3.74,1.17-10.04,1.17-10.04h0
			c2.43-3.57,3.85-7.88,3.85-12.53c0-12.32-9.99-22.3-22.3-22.3c-12.32,0-22.3,9.99-22.3,22.3c0,4.9,1.58,9.43,4.26,13.11
			c2.38,5.33,1.76,8.12,0.98,9.46H96.34c-3.38,0-6.13,2.74-6.13,6.13v124.02c0,3.38,2.74,6.13,6.13,6.13h124.02
			c3.38,0,6.13-2.74,6.13-6.13v-44.38c-0.85-0.86-3.54-2.55-10.19,0.42l0-0.02c-3.68,2.68-8.2,4.29-13.11,4.29
			c-12.32,0-22.3-9.99-22.3-22.3c0-12.32,9.99-22.3,22.3-22.3c4.65,0,8.96,1.42,12.53,3.85l0,0
			C215.72,241.19,222.91,245.93,226.48,241.6z"/>
		<path class="st5" d="M91.59,234.35c0,0,4.54-0.24,6.23,7.25c1.69,7.49-7.62,32.85-7.62,32.85v-23.04L91.59,234.35z"/>
		<path class="st5" d="M116.55,283.8c0,0,8.46,0.55,11.18,9.29l0.92,4.03c0,0,8.57,5.92,6.05,17c-0.58,2.54-3.65,7.1-3.65,7.1
			l3.16,6.57l-16.02-0.25l-6.01-31.94L116.55,283.8z"/>
		<g>
			<path class="st12" d="M69.36,353.57c0,0-8.17-58.04-9.12-72.39c-0.96-14.35,25.19-47.7,28.38-48.66
				c3.19-0.96,7.65,2.55,6.38,10.2c-1.28,7.65-12.76,28.25-12.76,28.25l1.91,13.39c0,0,13.07-6.7,24.55-3.83
				c11.48,2.87,14.35,9.25,13.39,16.58c0,0,6.38,5.74,6.7,11.48c0.32,5.74-2.87,10.2-2.87,10.2s2.55,8.93,0.32,12.44
				c-2.23,3.51-15.94,8.93-15.94,8.93s4.99,24.79-7.52,33.22c0,0-18.96,68.94-18.54,68.87H23.53c0,0,36.32-70.99,38.87-76.09
				C64.95,361.07,69.36,353.57,69.36,353.57z"/>
			<g class="st13">
				<path d="M111.5,330.16c-0.37-1.2-0.68-2.44-1.3-3.53c-0.62-1.09-1.62-2.05-2.86-2.28l3.38,15.63c0.89-1.87,1.8-3.84,1.71-5.92
					C112.37,332.72,111.9,331.44,111.5,330.16z"/>
			</g>
			<path class="st14" d="M110.72,343.28c-0.93-5.5-1.87-11-2.8-16.51c-0.09-0.55-0.19-1.11-0.49-1.57c-0.3-0.46-0.87-0.81-1.4-0.68"
				/>
			<path class="st14" d="M88.71,296.13c11.77-7.25,26.05-7.18,33.39,0.99"/>
			<path class="st14" d="M125.93,318.8c-1.9-4.68-3.56-8.75-8.36-10.31c-4.8-1.56-13.09-0.06-17.38,2.61"/>
			<path class="st14" d="M108.89,329.21c2-1.86,4.61-3.05,7.33-3.34"/>
			<path class="st14" d="M81.16,286.73c5.31-4.66,16.7-6.46,20.87-6.9"/>
		</g>
	</g>
</g>
<g id="Hand_2">
	<g>
		<path class="st15" d="M295.01,332.88c0,0,6.7-9,17.62-13.54c10.92-4.55,13.72-3.79,15.31-0.76c1.6,3.02-5.85,12.47-9.05,15.09
			c-3.2,2.62-23.04,15.98-23.04,15.98L295.01,332.88z"/>
		<path class="st16" d="M399.29,237.34c-4.9,0-9.42,1.6-13.11,4.29l0-0.02c-6.05,2.7-8.82,1.54-9.91,0.66v-44.63
			c0-3.38-2.74-6.13-6.13-6.13H246.12c-3.38,0-6.13,2.74-6.13,6.13v44.9c-3.77,2.61-9.77-1.35-9.77-1.35l0,0
			c-3.57-2.43-7.88-3.85-12.53-3.85c-12.32,0-22.3,9.99-22.3,22.3c0,12.32,9.99,22.3,22.3,22.3c4.9,0,9.43-1.6,13.11-4.29l0,0.02
			c5.01-2.24,7.77-1.82,9.19-1.11v45.08c0,3.38,2.74,6.13,6.13,6.13h124.02c3.38,0,6.13-2.74,6.13-6.13v-44.29
			c3.66-3.77,10.49,0.74,10.49,0.74l0,0c3.57,2.43,7.88,3.85,12.53,3.85c12.32,0,22.3-9.99,22.3-22.3
			C421.59,247.33,411.6,237.34,399.29,237.34z"/>
		<path class="st5" d="M256.67,323.97c0,0,18.73-3.35,27.72-4.07h3.57c0,0,1.72-28.22,16.14-29.28l-5.21,40.43l16.28-3.27
			c0,0,5.45-32.41,17.56-36.54l4.75,10.59c0,0,7.63-12.32,19.23-12.3l0,0l-13.28,39.27l-31.48,13.4l-27.57-1.78L256.67,323.97z"/>
	</g>
	<g>
		<path class="st17" d="M246.56,445.94c0.12-2.6,18.19-78.78,18.19-78.78c10.2-9.73,29.73-8.78,38.85-10.08
			c21.7-3.09,21.29-9.48,21.29-9.48s12.14,0.97,17.46-6.74c2.75-3.99,20.55-51.25,20.55-51.25s-3.34-3.98-11.62,3.97
			c-8.28,7.96-13.95,27.3-13.95,27.3s6.01-26.63,6.12-31.34s-9.18-3.32-12.13,4.37c-2.95,7.69-12.79,32.63-12.79,32.63
			c-2.61,4.16-5.81,6.97-10.02,7.46c0,0,3.48-38.55,3.47-42.76c-0.01-4.21-8.07-3.57-11.51,4c-3.45,7.57-8.13,28.49-8.13,28.49
			s-38.19-1.9-44.76,2.31c-12.64,8.11-54.84,119.9-54.84,119.9H246.56z"/>
		<path class="st17" d="M333.95,343.54c0.5,0.42,5.95,5.23,12.84,2.38c6.9-2.85,15.2-7.58,24.39-11.74c9.19-4.16,10-4.51,4.33-7.63
			c-5.66-3.12-14.71,0.66-20.84,2.7c-6.13,2.03-11.92,3.76-11.92,3.76L333.95,343.54z"/>
		<path class="st18" d="M325.03,347.76c6.2-5.31,12.92-23.84,18.4-58.22"/>
		<path class="st18" d="M296.24,344.96c4.27-0.41,7.12-1.24,9.24-3.02c3.8-3.17,6.47-50.71,6.47-50.71"/>
		<path class="st18" d="M335.2,346.13c3.97-1.39,7.66-6.56,9.65-10.27c1.99-3.71,16.68-41.51,18.04-46.25"/>
	</g>
</g>
</svg>
