<svg id="Capa_1" data-name="Capa 1" xmlns="http://www.w3.org/2000/svg" xmlns:xlink="http://www.w3.org/1999/xlink" viewBox="0 0 89.19 90.2"><defs><style>.cls-1{fill:none;}.cls-2{clip-path:url(#clip-path);}.cls-3{fill:#fff;}.cls-4{fill:#bd1622;}.cls-5{fill:#1d70b7;}.cls-6{fill:#f8b133;}</style><clipPath id="clip-path" transform="translate(-13.19 -17.67)"><rect class="cls-1" x="2.9" y="5.7" width="114.2" height="108.61"/></clipPath></defs><g class="cls-2"><path class="cls-3" d="M101.43,54.63a22.14,22.14,0,0,0-2.13-9.71A44.22,44.22,0,0,0,76,21.94c-32.14-13.61-57.12,7.57-62,31.26C10.32,70.58,20.08,84.8,37,87c10,1.28,18.35-2.07,25.28-9.55-.52-.3-.89-.54-1.29-.74L29.4,61.08c-.92-.45-1.75-.77-1.33-2.18C30.33,51.27,34,44.53,40.15,39.35a23,23,0,0,1,18.51-5.43c6.71.89,12.66,3.74,18.45,7.06q10.69,6.14,21.4,12.28C99.35,53.74,100.26,54.08,101.43,54.63ZM16.09,79.81a4.24,4.24,0,0,0,.11,1c4.44,9.1,10.66,16.64,19.37,21.93a10.47,10.47,0,0,0,4.68,1.45,38.3,38.3,0,0,0,17.47-3.08C78.16,92.38,86.64,69,76.16,50.15c-2.8-5-6.7-8.92-12.18-10.94-14.07-5.16-28.19,5.31-31.34,18.95l30.88,15c2.71-5.06,1.82-11-2.07-14.35-4.89-4.21-9.17-3.6-17,2.4,1.44-4.79,6.95-8.48,12.3-8.22,5.8.28,10.32,3.89,11.34,9.41a20.12,20.12,0,0,1-5.38,18C55.81,87.84,47.09,90.9,37,89.77A34.53,34.53,0,0,1,16.09,79.81ZM51,106.88c6.79,1.37,11.9,1.31,17.29-.13a45.72,45.72,0,0,0,34.05-45.93A3,3,0,0,0,101,58.75C94.43,55,87.8,51.4,81.18,47.75a9.33,9.33,0,0,0-1.39-.46c5,12.43,6.92,24.69.42,36.86C74,95.88,64.87,104.21,51,106.88Z" transform="translate(-13.19 -17.67)"/><path class="cls-4" d="M101.43,54.63c-1.17-.55-2.08-.89-2.92-1.37Q87.8,47.14,77.11,41c-5.79-3.32-11.74-6.17-18.45-7.06a23,23,0,0,0-18.51,5.43C34,44.53,30.33,51.27,28.07,58.9c-.42,1.41.41,1.73,1.33,2.18L61,76.67c.4.2.77.44,1.29.74C55.33,84.89,47,88.24,37,87c-16.9-2.16-26.66-16.38-23-33.76C18.87,29.51,43.85,8.33,76,21.94a44.22,44.22,0,0,1,23.31,23A22.14,22.14,0,0,1,101.43,54.63Z" transform="translate(-13.19 -17.67)"/><path class="cls-5" d="M16.09,79.81A34.53,34.53,0,0,0,37,89.77c10.07,1.13,18.79-1.93,25.73-9.38a20.12,20.12,0,0,0,5.38-18c-1-5.52-5.54-9.13-11.34-9.41-5.35-.26-10.86,3.43-12.3,8.22,7.79-6,12.07-6.61,17-2.4,3.89,3.35,4.78,9.29,2.07,14.35l-30.88-15C35.79,44.52,49.91,34.05,64,39.21c5.48,2,9.38,5.89,12.18,10.94,10.48,18.85,2,42.23-18.44,50.95a38.3,38.3,0,0,1-17.47,3.08,10.47,10.47,0,0,1-4.68-1.45C26.86,97.44,20.64,89.9,16.2,80.8A4.24,4.24,0,0,1,16.09,79.81Z" transform="translate(-13.19 -17.67)"/><path class="cls-6" d="M51,106.88c13.86-2.67,22.94-11,29.2-22.73,6.5-12.17,4.57-24.43-.42-36.86a9.33,9.33,0,0,1,1.39.46C87.8,51.4,94.43,55,101,58.75a3,3,0,0,1,1.34,2.07,45.72,45.72,0,0,1-34,45.93C62.91,108.19,57.8,108.25,51,106.88Z" transform="translate(-13.19 -17.67)"/></g></svg>